FullBodyModel_MuscleActuatedLowerLimb_TorqueActuatedUpperBody_states
version=1
nRows=4
nColumns=205
inDegrees=yes

# SIMM Motion File Header:
name FullBodyModel_MuscleActuatedLowerLimb_TorqueActuatedUpperBody_states
datacolumns 205
datarows 4
otherdata 1
range 0.30547335 0.31204603
endheader
time	/jointset/ground_pelvis/pelvis_tilt/value	/jointset/ground_pelvis/pelvis_tilt/speed	/jointset/ground_pelvis/pelvis_list/value	/jointset/ground_pelvis/pelvis_list/speed	/jointset/ground_pelvis/pelvis_rotation/value	/jointset/ground_pelvis/pelvis_rotation/speed	/jointset/ground_pelvis/pelvis_tx/value	/jointset/ground_pelvis/pelvis_tx/speed	/jointset/ground_pelvis/pelvis_ty/value	/jointset/ground_pelvis/pelvis_ty/speed	/jointset/ground_pelvis/pelvis_tz/value	/jointset/ground_pelvis/pelvis_tz/speed	/jointset/hip_r/hip_flexion_r/value	/jointset/hip_r/hip_flexion_r/speed	/jointset/hip_r/hip_adduction_r/value	/jointset/hip_r/hip_adduction_r/speed	/jointset/hip_r/hip_rotation_r/value	/jointset/hip_r/hip_rotation_r/speed	/jointset/walker_knee_r/knee_angle_r/value	/jointset/walker_knee_r/knee_angle_r/speed	/jointset/patellofemoral_r/knee_angle_r_beta/value	/jointset/patellofemoral_r/knee_angle_r_beta/speed	/jointset/ankle_r/ankle_angle_r/value	/jointset/ankle_r/ankle_angle_r/speed	/jointset/subtalar_r/subtalar_angle_r/value	/jointset/subtalar_r/subtalar_angle_r/speed	/jointset/mtp_r/mtp_angle_r/value	/jointset/mtp_r/mtp_angle_r/speed	/jointset/hip_l/hip_flexion_l/value	/jointset/hip_l/hip_flexion_l/speed	/jointset/hip_l/hip_adduction_l/value	/jointset/hip_l/hip_adduction_l/speed	/jointset/hip_l/hip_rotation_l/value	/jointset/hip_l/hip_rotation_l/speed	/jointset/walker_knee_l/knee_angle_l/value	/jointset/walker_knee_l/knee_angle_l/speed	/jointset/patellofemoral_l/knee_angle_l_beta/value	/jointset/patellofemoral_l/knee_angle_l_beta/speed	/jointset/ankle_l/ankle_angle_l/value	/jointset/ankle_l/ankle_angle_l/speed	/jointset/subtalar_l/subtalar_angle_l/value	/jointset/subtalar_l/subtalar_angle_l/speed	/jointset/mtp_l/mtp_angle_l/value	/jointset/mtp_l/mtp_angle_l/speed	/jointset/back/lumbar_extension/value	/jointset/back/lumbar_extension/speed	/jointset/back/lumbar_bending/value	/jointset/back/lumbar_bending/speed	/jointset/back/lumbar_rotation/value	/jointset/back/lumbar_rotation/speed	/jointset/acromial_r/arm_flex_r/value	/jointset/acromial_r/arm_flex_r/speed	/jointset/acromial_r/arm_add_r/value	/jointset/acromial_r/arm_add_r/speed	/jointset/acromial_r/arm_rot_r/value	/jointset/acromial_r/arm_rot_r/speed	/jointset/elbow_r/elbow_flex_r/value	/jointset/elbow_r/elbow_flex_r/speed	/jointset/radioulnar_r/pro_sup_r/value	/jointset/radioulnar_r/pro_sup_r/speed	/jointset/radius_hand_r/wrist_flex_r/value	/jointset/radius_hand_r/wrist_flex_r/speed	/jointset/radius_hand_r/wrist_dev_r/value	/jointset/radius_hand_r/wrist_dev_r/speed	/jointset/acromial_l/arm_flex_l/value	/jointset/acromial_l/arm_flex_l/speed	/jointset/acromial_l/arm_add_l/value	/jointset/acromial_l/arm_add_l/speed	/jointset/acromial_l/arm_rot_l/value	/jointset/acromial_l/arm_rot_l/speed	/jointset/elbow_l/elbow_flex_l/value	/jointset/elbow_l/elbow_flex_l/speed	/jointset/radioulnar_l/pro_sup_l/value	/jointset/radioulnar_l/pro_sup_l/speed	/jointset/radius_hand_l/wrist_flex_l/value	/jointset/radius_hand_l/wrist_flex_l/speed	/jointset/radius_hand_l/wrist_dev_l/value	/jointset/radius_hand_l/wrist_dev_l/speed	/forceset/addbrev_r/activation	/forceset/addlong_r/activation	/forceset/addlong_r/fiber_length	/forceset/addmagDist_r/activation	/forceset/addmagIsch_r/activation	/forceset/addmagIsch_r/fiber_length	/forceset/addmagMid_r/activation	/forceset/addmagProx_r/activation	/forceset/bflh_r/activation	/forceset/bflh_r/fiber_length	/forceset/bfsh_r/activation	/forceset/edl_r/activation	/forceset/edl_r/fiber_length	/forceset/ehl_r/activation	/forceset/ehl_r/fiber_length	/forceset/fdl_r/activation	/forceset/fdl_r/fiber_length	/forceset/fhl_r/activation	/forceset/fhl_r/fiber_length	/forceset/gaslat_r/activation	/forceset/gaslat_r/fiber_length	/forceset/gasmed_r/activation	/forceset/gasmed_r/fiber_length	/forceset/glmax1_r/activation	/forceset/glmax2_r/activation	/forceset/glmax3_r/activation	/forceset/glmed1_r/activation	/forceset/glmed2_r/activation	/forceset/glmed3_r/activation	/forceset/glmin1_r/activation	/forceset/glmin2_r/activation	/forceset/glmin3_r/activation	/forceset/glmin3_r/fiber_length	/forceset/grac_r/activation	/forceset/iliacus_r/activation	/forceset/perbrev_r/activation	/forceset/perbrev_r/fiber_length	/forceset/perlong_r/activation	/forceset/perlong_r/fiber_length	/forceset/piri_r/activation	/forceset/piri_r/fiber_length	/forceset/psoas_r/activation	/forceset/recfem_r/activation	/forceset/recfem_r/fiber_length	/forceset/sart_r/activation	/forceset/semimem_r/activation	/forceset/semimem_r/fiber_length	/forceset/semiten_r/activation	/forceset/semiten_r/fiber_length	/forceset/soleus_r/activation	/forceset/soleus_r/fiber_length	/forceset/tfl_r/activation	/forceset/tfl_r/fiber_length	/forceset/tibant_r/activation	/forceset/tibant_r/fiber_length	/forceset/tibpost_r/activation	/forceset/tibpost_r/fiber_length	/forceset/vasint_r/activation	/forceset/vasint_r/fiber_length	/forceset/vaslat_r/activation	/forceset/vaslat_r/fiber_length	/forceset/vasmed_r/activation	/forceset/vasmed_r/fiber_length	/forceset/addbrev_l/activation	/forceset/addlong_l/activation	/forceset/addlong_l/fiber_length	/forceset/addmagDist_l/activation	/forceset/addmagIsch_l/activation	/forceset/addmagIsch_l/fiber_length	/forceset/addmagMid_l/activation	/forceset/addmagProx_l/activation	/forceset/bflh_l/activation	/forceset/bflh_l/fiber_length	/forceset/bfsh_l/activation	/forceset/edl_l/activation	/forceset/edl_l/fiber_length	/forceset/ehl_l/activation	/forceset/ehl_l/fiber_length	/forceset/fdl_l/activation	/forceset/fdl_l/fiber_length	/forceset/fhl_l/activation	/forceset/fhl_l/fiber_length	/forceset/gaslat_l/activation	/forceset/gaslat_l/fiber_length	/forceset/gasmed_l/activation	/forceset/gasmed_l/fiber_length	/forceset/glmax1_l/activation	/forceset/glmax2_l/activation	/forceset/glmax3_l/activation	/forceset/glmed1_l/activation	/forceset/glmed2_l/activation	/forceset/glmed3_l/activation	/forceset/glmin1_l/activation	/forceset/glmin2_l/activation	/forceset/glmin3_l/activation	/forceset/glmin3_l/fiber_length	/forceset/grac_l/activation	/forceset/iliacus_l/activation	/forceset/perbrev_l/activation	/forceset/perbrev_l/fiber_length	/forceset/perlong_l/activation	/forceset/perlong_l/fiber_length	/forceset/piri_l/activation	/forceset/piri_l/fiber_length	/forceset/psoas_l/activation	/forceset/recfem_l/activation	/forceset/recfem_l/fiber_length	/forceset/sart_l/activation	/forceset/semimem_l/activation	/forceset/semimem_l/fiber_length	/forceset/semiten_l/activation	/forceset/semiten_l/fiber_length	/forceset/soleus_l/activation	/forceset/soleus_l/fiber_length	/forceset/tfl_l/activation	/forceset/tfl_l/fiber_length	/forceset/tibant_l/activation	/forceset/tibant_l/fiber_length	/forceset/tibpost_l/activation	/forceset/tibpost_l/fiber_length	/forceset/vasint_l/activation	/forceset/vasint_l/fiber_length	/forceset/vaslat_l/activation	/forceset/vaslat_l/fiber_length	/forceset/vasmed_l/activation	/forceset/vasmed_l/fiber_length
      0.30547335	      4.95544066	     -1.39372256	      0.00000000	      0.00000000	     -0.00000000	      0.00000000	      0.00007222	      0.01851899	      0.48994849	     -3.00102346	     -0.00000000	     -0.00000000	     -6.11415750	    -14.67295022	      2.57041800	     24.19731023	    -25.04845772	   -101.20257529	     -2.33227271	    -51.94422461	     -0.04070584	     -0.90659775	    -23.33326377	     -9.58601662	     -0.00000000	     -0.00000000	      0.00000000	     -0.00000000	     -6.11415750	    -14.67295022	      2.57041800	     24.19731023	    -25.04845772	   -101.20257529	     -2.33227271	    -51.94422461	     -0.04070584	     -0.90659775	    -23.33326377	     -9.58601662	      0.00000000	      0.00000000	      0.00000000	      0.00000000	     -5.74587065	      3.76256965	     -0.00000000	     -0.00000000	      0.00000000	     -0.00000000	      1.18932008	     -3.53699263	      0.03952806	     -0.11328733	      0.00297374	      0.10923395	     -0.55060099	      1.36443303	      0.11292520	     -0.26740281	      0.00000000	     -0.00000000	      0.00000000	     -0.00000000	      1.18932008	     -3.53699263	      0.03952806	     -0.11328733	      0.00297374	      0.10923395	     -0.55060099	      1.36443303	      0.11292520	     -0.26740281	      0.00000000	     -0.00000000	      0.00000000	     -0.00000000	     -0.02932969	     -0.02932969	      0.11715506	     -0.02932969	     -0.02932969	      0.12193339	     -0.02932969	     -0.02932969	     -0.02932969	      0.08357383	     -0.02932969	     -0.02932969	      0.08162804	     -0.02932969	      0.09138576	     -0.02932969	      0.04164247	     -0.02932969	      0.04526358	     -0.02932969	      0.05441767	     -0.02932969	      0.04043625	     -0.02932969	     -0.02932969	     -0.02932969	     -0.02932969	     -0.02932969	     -0.02932969	     -0.02932969	     -0.02932969	     -0.02932969	      0.03091190	     -0.02932969	     -0.02932969	     -0.02932969	      0.04595312	     -0.02932969	      0.05055187	     -0.02932969	      0.01097708	     -0.02932969	     -0.02932969	      0.06643677	     -0.02932969	     -0.02932969	      0.06255797	     -0.02932969	      0.20745509	     -0.02932969	      0.03236658	     -0.02932969	      0.10147934	     -0.02932969	      0.08129571	     -0.02932969	      0.03514958	     -0.02932969	      0.07790145	     -0.02932969	      0.07718017	     -0.02932969	      0.07884582	     -0.02932969	     -0.02932969	      0.11715506	     -0.02932969	     -0.02932969	      0.12193339	     -0.02932969	     -0.02932969	     -0.02932969	      0.08357383	     -0.02932969	     -0.02932969	      0.08162804	     -0.02932969	      0.09138576	     -0.02932969	      0.04164247	     -0.02932969	      0.04526358	     -0.02932969	      0.05441767	     -0.02932969	      0.04043625	     -0.02932969	     -0.02932969	     -0.02932969	     -0.02932969	     -0.02932969	     -0.02932969	     -0.02932969	     -0.02932969	     -0.02932969	      0.03091190	     -0.02932969	     -0.02932969	     -0.02932969	      0.04595312	     -0.02932969	      0.05055187	     -0.02932969	      0.01097708	     -0.02932969	     -0.02932969	      0.06643677	     -0.02932969	     -0.02932969	      0.06255797	     -0.02932969	      0.20745509	     -0.02932969	      0.03236658	     -0.02932969	      0.10147934	     -0.02932969	      0.08129571	     -0.02932969	      0.03514958	     -0.02932969	      0.07790145	     -0.02932969	      0.07718017	     -0.02932969	      0.07884582
      0.30791592	      4.95193064	     -1.47612263	      0.00000000	     -0.00000000	     -0.00000000	     -0.00000000	      0.00011750	      0.01855765	      0.48258872	     -3.02520958	     -0.00000000	      0.00000000	     -6.14991130	    -14.60742484	      2.62986913	     24.48164091	    -25.29524259	   -100.86335552	     -2.45956917	    -52.28737027	     -0.04292758	     -0.91258677	    -23.35643588	     -9.38821687	     -0.00000000	     -0.00000000	      0.00000000	     -0.00000000	     -6.14991130	    -14.60742484	      2.62986913	     24.48164091	    -25.29524259	   -100.86335552	     -2.45956917	    -52.28737027	     -0.04292758	     -0.91258677	    -23.35643588	     -9.38821687	      0.00000000	      0.00000000	      0.00000000	      0.00000000	     -5.73655371	      3.86137302	     -0.00000000	      0.00000000	      0.00000000	      0.00000000	      1.18065118	     -3.56016903	      0.03925059	     -0.11387037	      0.00324217	      0.11057350	     -0.54726155	      1.36937937	      0.11227144	     -0.26777482	      0.00000000	     -0.00000000	      0.00000000	     -0.00000000	      1.18065118	     -3.56016903	      0.03925059	     -0.11387037	      0.00324217	      0.11057350	     -0.54726155	      1.36937937	      0.11227144	     -0.26777482	      0.00000000	     -0.00000000	      0.00000000	     -0.00000000	     -0.02964417	     -0.02964417	      0.11714358	     -0.02964417	     -0.02964417	      0.12190067	     -0.02964417	     -0.02964417	     -0.02964417	      0.08357937	     -0.02964417	     -0.02964417	      0.08163921	     -0.02964417	      0.09139738	     -0.02964417	      0.04163783	     -0.02964417	      0.04525657	     -0.02964417	      0.05442284	     -0.02964417	      0.04041632	     -0.02964417	     -0.02964417	     -0.02964417	     -0.02964417	     -0.02964417	     -0.02964417	     -0.02964417	     -0.02964417	     -0.02964417	      0.03085686	     -0.02964417	     -0.02964417	     -0.02964417	      0.04595011	     -0.02964417	      0.05054764	     -0.02964417	      0.01089063	     -0.02964417	     -0.02964417	      0.06636848	     -0.02964417	     -0.02964417	      0.06259774	     -0.02964417	      0.20750357	     -0.02964417	      0.03235088	     -0.02964417	      0.10151859	     -0.02964417	      0.08130901	     -0.02964417	      0.03514467	     -0.02964417	      0.07780001	     -0.02964417	      0.07709604	     -0.02964417	      0.07876157	     -0.02964417	     -0.02964417	      0.11714358	     -0.02964417	     -0.02964417	      0.12190067	     -0.02964417	     -0.02964417	     -0.02964417	      0.08357937	     -0.02964417	     -0.02964417	      0.08163921	     -0.02964417	      0.09139738	     -0.02964417	      0.04163783	     -0.02964417	      0.04525657	     -0.02964417	      0.05442284	     -0.02964417	      0.04041632	     -0.02964417	     -0.02964417	     -0.02964417	     -0.02964417	     -0.02964417	     -0.02964417	     -0.02964417	     -0.02964417	     -0.02964417	      0.03085686	     -0.02964417	     -0.02964417	     -0.02964417	      0.04595011	     -0.02964417	      0.05054764	     -0.02964417	      0.01089063	     -0.02964417	     -0.02964417	      0.06636848	     -0.02964417	     -0.02964417	      0.06259774	     -0.02964417	      0.20750357	     -0.02964417	      0.03235088	     -0.02964417	      0.10151859	     -0.02964417	      0.08130901	     -0.02964417	      0.03514467	     -0.02964417	      0.07780001	     -0.02964417	      0.07709604	     -0.02964417	      0.07876157
      0.30998098	      4.94881504	     -1.54064024	      0.00000000	      0.00000000	     -0.00000000	      0.00000000	      0.00015586	      0.01858936	      0.47632039	     -3.04565170	     -0.00000000	     -0.00000000	     -6.18002408	    -14.55738478	      2.68067282	     24.72148635	    -25.50322548	   -100.56552530	     -2.56784556	    -52.57796778	     -0.04481736	     -0.91765865	    -23.37565722	     -9.22868120	     -0.00000000	     -0.00000000	      0.00000000	     -0.00000000	     -6.18002408	    -14.55738478	      2.68067282	     24.72148635	    -25.50322548	   -100.56552530	     -2.56784556	    -52.57796778	     -0.04481736	     -0.91765865	    -23.37565722	     -9.22868120	      0.00000000	      0.00000000	      0.00000000	      0.00000000	     -5.72849892	      3.93884939	     -0.00000000	     -0.00000000	      0.00000000	     -0.00000000	      1.17328025	     -3.57835958	      0.03901497	     -0.11431207	      0.00347170	      0.11172682	     -0.54443008	      1.37278681	      0.11171831	     -0.26790746	      0.00000000	     -0.00000000	      0.00000000	     -0.00000000	      1.17328025	     -3.57835958	      0.03901497	     -0.11431207	      0.00347170	      0.11172682	     -0.54443008	      1.37278681	      0.11171831	     -0.26790746	      0.00000000	     -0.00000000	      0.00000000	     -0.00000000	     -0.02991005	     -0.02991005	      0.11713561	     -0.02991005	     -0.02991005	      0.12187281	     -0.02991005	     -0.02991005	     -0.02991005	      0.08358443	     -0.02991005	     -0.02991005	      0.08164848	     -0.02991005	      0.09140701	     -0.02991005	      0.04163398	     -0.02991005	      0.04525076	     -0.02991005	      0.05442757	     -0.02991005	      0.04039972	     -0.02991005	     -0.02991005	     -0.02991005	     -0.02991005	     -0.02991005	     -0.02991005	     -0.02991005	     -0.02991005	     -0.02991005	      0.03081314	     -0.02991005	     -0.02991005	     -0.02991005	      0.04594762	     -0.02991005	      0.05054413	     -0.02991005	      0.01081884	     -0.02991005	     -0.02991005	      0.06631029	     -0.02991005	     -0.02991005	      0.06263167	     -0.02991005	      0.20753675	     -0.02991005	      0.03233785	     -0.02991005	      0.10155199	     -0.02991005	      0.08132003	     -0.02991005	      0.03514060	     -0.02991005	      0.07771371	     -0.02991005	      0.07702450	     -0.02991005	      0.07868993	     -0.02991005	     -0.02991005	      0.11713561	     -0.02991005	     -0.02991005	      0.12187281	     -0.02991005	     -0.02991005	     -0.02991005	      0.08358443	     -0.02991005	     -0.02991005	      0.08164848	     -0.02991005	      0.09140701	     -0.02991005	      0.04163398	     -0.02991005	      0.04525076	     -0.02991005	      0.05442757	     -0.02991005	      0.04039972	     -0.02991005	     -0.02991005	     -0.02991005	     -0.02991005	     -0.02991005	     -0.02991005	     -0.02991005	     -0.02991005	     -0.02991005	      0.03081314	     -0.02991005	     -0.02991005	     -0.02991005	      0.04594762	     -0.02991005	      0.05054413	     -0.02991005	      0.01081884	     -0.02991005	     -0.02991005	      0.06631029	     -0.02991005	     -0.02991005	      0.06263167	     -0.02991005	      0.20753675	     -0.02991005	      0.03233785	     -0.02991005	      0.10155199	     -0.02991005	      0.08132003	     -0.02991005	      0.03514060	     -0.02991005	      0.07771371	     -0.02991005	      0.07702450	     -0.02991005	      0.07868993
      0.31204603	      4.94557792	     -1.59274389	      0.00000000	     -0.00000000	     -0.00000000	     -0.00000000	      0.00019428	      0.01862036	      0.47000986	     -3.06607834	     -0.00000000	      0.00000000	     -6.21004667	    -14.52137579	      2.73197111	     24.96064093	    -25.71057920	   -100.25381538	     -2.67672179	    -52.86827401	     -0.04671761	     -0.92272545	    -23.39454865	     -9.06720036	     -0.00000000	     -0.00000000	      0.00000000	     -0.00000000	     -6.21004667	    -14.52137579	      2.73197111	     24.96064093	    -25.71057920	   -100.25381538	     -2.67672179	    -52.86827401	     -0.04671761	     -0.92272545	    -23.39454865	     -9.06720036	      0.00000000	      0.00000000	      0.00000000	      0.00000000	     -5.72029775	      4.00191887	     -0.00000000	      0.00000000	      0.00000000	      0.00000000	      1.16587467	     -3.59347887	      0.03877856	     -0.11464231	      0.00370364	      0.11291958	     -0.54159315	      1.37452794	      0.11116527	     -0.26765293	      0.00000000	     -0.00000000	      0.00000000	     -0.00000000	      1.16587467	     -3.59347887	      0.03877856	     -0.11464231	      0.00370364	      0.11291958	     -0.54159315	      1.37452794	      0.11116527	     -0.26765293	      0.00000000	     -0.00000000	      0.00000000	     -0.00000000	     -0.03017593	     -0.03017593	      0.11712535	     -0.03017593	     -0.03017593	      0.12184470	     -0.03017593	     -0.03017593	     -0.03017593	      0.08358982	     -0.03017593	     -0.03017593	      0.08165758	     -0.03017593	      0.09141648	     -0.03017593	      0.04163020	     -0.03017593	      0.04524505	     -0.03017593	      0.05443261	     -0.03017593	      0.04038324	     -0.03017593	     -0.03017593	     -0.03017593	     -0.03017593	     -0.03017593	     -0.03017593	     -0.03017593	     -0.03017593	     -0.03017593	      0.03076874	     -0.03017593	     -0.03017593	     -0.03017593	      0.04594516	     -0.03017593	      0.05054068	     -0.03017593	      0.01074823	     -0.03017593	     -0.03017593	      0.06625171	     -0.03017593	     -0.03017593	      0.06266586	     -0.03017593	      0.20757602	     -0.03017593	      0.03232506	     -0.03017593	      0.10158561	     -0.03017593	      0.08133086	     -0.03017593	      0.03513660	     -0.03017593	      0.07762691	     -0.03017593	      0.07695257	     -0.03017593	      0.07861791	     -0.03017593	     -0.03017593	      0.11712535	     -0.03017593	     -0.03017593	      0.12184470	     -0.03017593	     -0.03017593	     -0.03017593	      0.08358982	     -0.03017593	     -0.03017593	      0.08165758	     -0.03017593	      0.09141648	     -0.03017593	      0.04163020	     -0.03017593	      0.04524505	     -0.03017593	      0.05443261	     -0.03017593	      0.04038324	     -0.03017593	     -0.03017593	     -0.03017593	     -0.03017593	     -0.03017593	     -0.03017593	     -0.03017593	     -0.03017593	     -0.03017593	      0.03076874	     -0.03017593	     -0.03017593	     -0.03017593	      0.04594516	     -0.03017593	      0.05054068	     -0.03017593	      0.01074823	     -0.03017593	     -0.03017593	      0.06625171	     -0.03017593	     -0.03017593	      0.06266586	     -0.03017593	      0.20757602	     -0.03017593	      0.03232506	     -0.03017593	      0.10158561	     -0.03017593	      0.08133086	     -0.03017593	      0.03513660	     -0.03017593	      0.07762691	     -0.03017593	      0.07695257	     -0.03017593	      0.07861791
